<svg xmlns="http://www.w3.org/2000/svg" viewBox="0 0 100 100">
  <rect width="100" height="100" rx="20" fill="#000000"/>
  <path d="M70 35H60V25C60 19.4772 55.5228 15 50 15C44.4772 15 40 19.4772 40 25V35H30C24.4772 35 20 39.4772 20 45V75C20 80.5228 24.4772 85 30 85H70C75.5228 85 80 80.5228 80 75V45C80 39.4772 75.5228 35 70 35ZM46 25C46 22.7909 47.7909 21 50 21C52.2091 21 54 22.7909 54 25V35H46V25ZM74 75C74 77.2091 72.2091 79 70 79H30C27.7909 79 26 77.2091 26 75V45C26 42.7909 27.7909 41 30 41H70C72.2091 41 74 42.7909 74 45V75Z" fill="#ffffff"/>
</svg>
